<mxfile host="app.diagrams.net" modified="2024-03-21T01:41:06.274Z" agent="Mozilla/5.0 (Macintosh; Intel Mac OS X 10_15_7) AppleWebKit/537.36 (KHTML, like Gecko) Chrome/122.0.0.0 Safari/537.36" version="24.0.7" etag="b52Y-6D9rV5ayMKz-src" type="github">
  <diagram name="第 1 页" id="dSIhvU0dKcElDhx-kQ-N">
    <mxGraphModel>
      <root>
        <mxCell id="0" />
        <mxCell id="1" parent="0" />
      </root>
    </mxGraphModel>
  </diagram>
</mxfile>
